<svg width="180" height="180" viewBox="0 0 180 180" fill="none" xmlns="http://www.w3.org/2000/svg">
<path d="M114 25.1429C114 36.8317 96.2855 67.7125 90.6797 77.1923C89.9178 78.4806 88.0822 78.4806 87.3203 77.1923C81.7145 67.7125 64 36.8317 64 25.1429C64 11.2568 75.1929 0 89 0C102.807 0 114 11.2568 114 25.1429Z" fill="black"/>
<path d="M157.517 78.1355C147.484 83.9602 112.209 84.061 101.277 83.9466C99.7861 83.931 98.8743 82.3428 99.6065 81.0362C104.974 71.4594 122.698 40.79 132.731 34.9653C144.653 28.0433 159.867 32.0959 166.711 44.017C173.556 55.9381 169.439 71.2135 157.517 78.1355Z" fill="black"/>
<path d="M133.626 142.661C123.594 136.836 105.869 106.167 100.502 96.5902C99.7699 95.2837 100.682 93.6954 102.173 93.6798C113.104 93.5654 148.379 93.6663 158.412 99.491C170.335 106.413 174.451 121.688 167.607 133.609C160.763 145.531 145.549 149.583 133.626 142.661Z" fill="black"/>
<path d="M66 154.857C66 143.168 83.7145 112.288 89.3203 102.808C90.0822 101.519 91.9178 101.519 92.6797 102.808C98.2856 112.288 116 143.168 116 154.857C116 168.743 104.807 180 91 180C77.1929 180 66 168.743 66 154.857Z" fill="black"/>
<path d="M22.4834 101.051C32.5161 95.2266 67.7912 95.1258 78.7225 95.2402C80.2138 95.2558 81.1257 96.844 80.3935 98.1505C75.0264 107.727 57.302 138.397 47.2693 144.222C35.3466 151.144 20.1329 147.091 13.2885 135.17C6.44408 123.249 10.5608 107.973 22.4834 101.051Z" fill="black"/>
<path d="M46.3737 36.5238C56.4064 42.3485 74.1308 73.0179 79.4979 82.5948C80.2301 83.9013 79.3182 85.4896 77.8269 85.5052C66.8956 85.6195 31.6205 85.5187 21.5878 79.694C9.6652 72.772 5.5485 57.4966 12.3929 45.5755C19.2374 33.6544 34.4511 29.6018 46.3737 36.5238Z" fill="black"/>
</svg>
